<?xml version="1.0" standalone="no"?>
<!DOCTYPE svg PUBLIC "-//W3C//DTD SVG 20010904//EN"
 "http://www.w3.org/TR/2001/REC-SVG-20010904/DTD/svg10.dtd">
<svg version="1.0" xmlns="http://www.w3.org/2000/svg"
 width="879.000000pt" height="879.000000pt" viewBox="0 0 879.000000 879.000000"
 preserveAspectRatio="xMidYMid meet">
<metadata>
Created by potrace 1.14, written by Peter Selinger 2001-2017
</metadata>
<g transform="translate(0.000000,879.000000) scale(0.100000,-0.100000)"
fill="#000000" stroke="none">
<path d="M3430 8630 c0 -3 -17 -5 -37 -4 -21 0 -43 -3 -50 -8 -7 -5 -18 -6
-25 -2 -20 13 -38 13 -38 2 0 -7 -5 -7 -12 -1 -7 5 -22 8 -33 7 -37 -4 -120
-15 -150 -20 -16 -2 -41 -5 -55 -5 -14 -1 -31 -6 -39 -13 -11 -8 -13 -8 -8 1
4 6 3 14 -3 18 -5 3 -10 1 -10 -6 0 -7 -10 -9 -25 -7 -14 3 -25 2 -25 -1 0 -4
-12 -8 -27 -9 -27 -2 -51 -6 -95 -18 -13 -3 -35 -7 -49 -8 -15 -2 -33 -7 -40
-12 -7 -4 -26 -8 -41 -8 -15 -1 -35 -8 -45 -16 -10 -8 -31 -16 -48 -16 -59 -3
-80 -8 -92 -24 -6 -9 -28 -17 -48 -18 -21 -2 -49 -9 -64 -16 -14 -7 -31 -11
-38 -9 -6 2 -14 -1 -18 -6 -3 -6 -19 -11 -36 -11 -17 0 -36 -8 -46 -20 -10
-11 -25 -20 -35 -20 -9 0 -20 -4 -23 -10 -3 -5 -17 -10 -30 -10 -13 0 -30 -6
-37 -14 -8 -7 -30 -17 -49 -21 -19 -4 -42 -14 -51 -23 -10 -8 -18 -11 -18 -6
0 5 -4 4 -8 -2 -8 -11 -96 -54 -112 -54 -5 0 -10 -4 -10 -9 0 -14 -71 -53 -86
-47 -8 3 -21 -5 -30 -19 -8 -13 -21 -22 -28 -19 -8 3 -20 -1 -28 -9 -8 -8 -24
-18 -36 -21 -12 -4 -20 -12 -17 -17 6 -8 -8 -13 -27 -10 -5 0 -8 -3 -8 -9 0
-5 -7 -10 -15 -10 -8 0 -15 -7 -15 -15 0 -8 -11 -17 -24 -21 -14 -3 -27 -13
-30 -21 -4 -8 -13 -13 -21 -9 -9 3 -15 0 -15 -9 0 -8 -7 -15 -15 -15 -9 0 -18
-7 -21 -15 -4 -8 -10 -13 -14 -10 -5 3 -25 -10 -44 -30 -19 -19 -39 -35 -44
-35 -13 0 -93 -80 -88 -89 3 -4 -4 -13 -16 -20 -14 -9 -18 -9 -13 -1 6 9 2 9
-13 1 -11 -6 -23 -20 -27 -30 -3 -11 -26 -36 -50 -56 -25 -20 -45 -43 -45 -50
0 -8 -5 -17 -12 -21 -7 -5 -8 -2 -3 7 4 8 -12 -6 -37 -31 -24 -25 -43 -47 -42
-48 5 -7 -53 -62 -64 -62 -6 0 -9 -9 -7 -21 3 -15 0 -19 -11 -15 -8 3 -13 2
-10 -2 3 -5 -3 -15 -12 -24 -9 -8 -33 -34 -52 -58 -19 -24 -47 -57 -63 -74
-15 -17 -27 -35 -27 -41 0 -6 -13 -25 -30 -43 -16 -18 -29 -37 -27 -41 1 -5
-7 -17 -19 -27 -22 -20 -60 -84 -56 -96 1 -5 -2 -8 -8 -8 -5 0 -10 -7 -10 -15
0 -8 -5 -15 -11 -15 -5 0 -7 5 -3 12 5 7 3 8 -5 4 -7 -5 -10 -10 -7 -13 6 -6
-23 -65 -36 -74 -8 -5 -15 -25 -17 -52 -1 -5 -5 -5 -11 -2 -12 8 -24 -40 -14
-57 4 -7 4 -10 -1 -6 -12 11 -35 -11 -35 -33 0 -24 -21 -70 -30 -64 -3 2 -13
-11 -22 -30 -9 -21 -11 -32 -4 -29 6 3 2 -2 -8 -10 -12 -9 -15 -16 -7 -16 7 0
0 -15 -16 -35 -16 -19 -30 -49 -31 -66 -1 -18 -11 -46 -21 -63 -10 -17 -24
-52 -32 -78 -7 -26 -17 -44 -23 -41 -5 4 -7 -3 -4 -15 4 -12 3 -22 -2 -22 -4
0 -10 -21 -13 -46 -2 -26 -9 -49 -15 -53 -10 -6 -28 -78 -24 -93 1 -5 -2 -8
-7 -8 -5 0 -11 -9 -14 -20 -3 -11 -1 -18 4 -14 12 7 11 1 -3 -33 -6 -15 -11
-31 -10 -35 1 -5 -4 -8 -11 -8 -8 0 -7 -4 3 -10 10 -6 11 -10 3 -10 -8 0 -11
-11 -9 -30 2 -16 0 -30 -4 -30 -4 0 -6 -11 -5 -25 2 -13 -3 -29 -11 -36 -16
-13 -19 -55 -4 -64 6 -3 10 -12 10 -18 0 -7 -4 -6 -10 3 -8 12 -10 10 -11 -10
-1 -14 -1 -29 0 -34 1 -4 -4 -14 -10 -22 -9 -11 -9 -18 1 -29 6 -8 9 -19 5
-25 -4 -7 -9 -33 -12 -58 -7 -75 -8 -494 -1 -524 4 -17 2 -28 -5 -31 -8 -2 -6
-12 6 -30 10 -15 13 -28 7 -32 -12 -8 -9 -58 5 -67 6 -5 4 -8 -5 -8 -13 0 -13
-1 0 -10 12 -8 12 -10 1 -10 -10 0 -11 -3 -2 -14 6 -7 12 -32 14 -55 1 -22 5
-41 8 -41 4 0 7 -12 8 -27 2 -56 8 -90 16 -103 5 -8 8 -28 7 -44 -2 -16 3 -33
9 -37 7 -4 13 -22 14 -41 3 -45 16 -89 25 -83 4 2 5 -7 2 -22 -3 -16 -1 -24 5
-20 7 4 10 -6 8 -28 -1 -19 1 -35 5 -35 5 0 33 -63 35 -80 0 -3 4 -10 8 -17 4
-6 2 -15 -3 -18 -8 -5 -7 -12 4 -23 19 -22 57 -118 49 -126 -4 -3 -2 -6 4 -6
6 0 9 -8 6 -19 -2 -10 2 -24 9 -32 7 -8 13 -21 13 -29 0 -8 7 -21 17 -28 10
-7 18 -19 18 -25 0 -7 7 -25 15 -41 8 -15 13 -32 10 -36 -2 -4 4 -15 15 -25
11 -10 17 -21 15 -26 -3 -4 -1 -10 5 -14 5 -3 10 -13 10 -22 0 -8 9 -26 20
-40 11 -14 18 -29 15 -33 -2 -4 4 -15 15 -25 10 -9 17 -22 14 -29 -3 -7 7 -18
21 -26 15 -8 23 -20 21 -27 -3 -7 3 -22 14 -33 11 -11 20 -22 20 -25 0 -3 0
-9 0 -14 0 -5 15 -30 34 -54 19 -25 33 -47 31 -49 -2 -2 9 -19 25 -38 17 -19
30 -39 30 -43 0 -4 19 -27 42 -50 23 -23 41 -44 41 -47 -1 -12 10 -30 19 -30
5 0 6 6 2 12 -4 7 -3 9 1 5 13 -11 15 -38 2 -30 -6 3 -2 -6 9 -20 10 -15 24
-27 29 -27 12 0 40 -41 37 -52 -1 -5 2 -8 8 -8 12 0 50 -32 50 -42 0 -15 53
-68 62 -62 5 3 7 1 6 -4 -3 -11 134 -147 197 -197 21 -16 55 -45 74 -64 20
-19 62 -52 93 -73 32 -22 68 -52 80 -67 27 -31 56 -53 43 -30 -5 7 11 -3 36
-24 26 -20 53 -37 61 -37 8 0 23 -9 33 -20 10 -11 21 -17 25 -15 11 7 41 -30
33 -40 -5 -4 -2 -5 5 -1 6 4 12 3 12 -2 0 -5 12 -7 28 -4 15 2 23 1 19 -4 -8
-8 24 -28 96 -60 20 -9 37 -21 37 -26 0 -5 4 -7 8 -4 5 3 33 -10 63 -29 29
-19 59 -35 65 -35 6 0 17 -7 24 -15 10 -12 16 -13 26 -4 11 9 14 8 14 -5 0
-14 18 -21 43 -17 4 0 7 -4 7 -11 0 -6 3 -8 6 -5 4 3 16 0 28 -8 11 -8 29 -15
39 -15 11 0 15 -5 11 -11 -4 -8 0 -8 15 0 14 8 21 8 21 1 0 -5 9 -10 21 -10
11 0 17 -4 14 -10 -3 -6 4 -10 18 -10 14 0 40 -6 58 -14 19 -7 40 -11 46 -9 7
3 13 0 13 -6 0 -6 8 -11 18 -11 10 0 23 -5 28 -10 6 -6 33 -13 59 -16 27 -2
60 -12 73 -20 13 -9 30 -13 37 -10 8 3 17 1 20 -4 3 -5 14 -7 25 -5 11 2 20 1
20 -3 0 -4 12 -9 26 -10 14 -1 30 -5 36 -8 13 -8 82 -16 125 -15 18 0 35 -4
38 -9 4 -6 10 -8 15 -5 5 3 11 1 15 -5 3 -5 11 -10 16 -10 6 0 7 5 3 11 -4 8
-1 8 12 1 11 -5 33 -8 51 -6 18 2 35 -1 38 -6 3 -5 38 -9 78 -10 110 -2 141
-4 155 -13 6 -5 12 -4 12 0 0 5 54 8 120 8 66 0 120 4 120 8 0 5 5 5 11 1 7
-4 38 -8 71 -9 44 -1 62 3 65 13 5 11 7 11 14 1 6 -10 11 -10 25 2 11 9 15 9
10 1 -4 -6 -2 -12 3 -12 6 0 11 4 11 8 0 9 17 12 58 12 13 0 32 5 42 10 13 7
20 6 23 -3 3 -9 9 -9 26 1 12 7 49 15 84 18 34 3 68 10 74 16 7 6 19 8 27 5 8
-3 17 -1 20 6 5 9 7 9 12 0 3 -7 12 -9 20 -6 7 3 11 9 8 14 -3 5 0 9 5 9 6 0
11 -5 11 -12 0 -7 6 -5 18 4 9 9 26 14 36 12 10 -1 29 4 42 13 15 10 24 11 24
4 0 -7 6 -8 18 -2 59 30 114 51 122 46 4 -3 10 -1 12 5 2 6 20 12 41 15 21 3
51 12 67 20 16 8 37 15 46 15 9 0 22 7 28 16 7 9 28 16 49 17 20 0 37 4 37 8
0 4 10 11 23 15 12 3 29 12 37 19 8 7 30 16 48 20 17 3 32 11 32 15 0 12 64
42 82 38 7 -1 26 10 42 25 16 15 37 27 46 27 9 0 38 16 64 35 25 20 46 33 46
29 0 -5 7 1 16 12 8 10 12 12 8 4 -6 -12 -4 -12 12 1 10 9 25 14 32 12 6 -3
12 3 12 11 0 9 8 20 18 23 9 4 23 13 31 21 7 7 19 11 26 8 8 -3 16 2 19 10 3
8 12 14 21 14 8 0 15 5 15 10 0 6 7 10 15 10 8 0 15 4 15 9 0 5 8 12 18 15 11
4 36 24 58 46 21 22 48 40 58 40 11 0 17 3 13 6 -3 3 15 22 41 42 26 20 53 42
60 49 8 7 23 18 34 24 11 6 18 13 15 15 -8 8 47 61 70 68 11 3 27 22 36 41 9
19 21 35 26 35 5 0 16 7 24 15 13 12 18 12 37 -5 13 -11 20 -20 17 -20 -4 0
11 -19 33 -41 22 -23 40 -48 40 -56 0 -8 4 -11 10 -8 5 3 10 2 10 -4 0 -6 11
-21 25 -35 34 -34 95 -80 95 -71 0 4 16 -9 36 -29 20 -20 40 -33 45 -30 5 3
12 -2 15 -10 3 -9 12 -16 19 -16 7 0 18 -7 25 -15 7 -8 29 -15 49 -15 27 0 32
-3 21 -10 -12 -8 -11 -10 6 -10 12 0 27 -7 34 -15 7 -8 16 -13 20 -10 5 3 12
0 16 -6 4 -7 3 -9 -4 -5 -6 3 -13 -2 -16 -12 -4 -12 -25 -23 -58 -32 -30 -9
-65 -28 -85 -46 -18 -17 -33 -29 -33 -26 0 3 -8 -2 -18 -11 -10 -10 -22 -14
-25 -10 -7 6 -10 -11 -4 -22 1 -2 -23 -20 -53 -39 -30 -20 -50 -36 -45 -36 6
0 -1 -6 -15 -13 -14 -7 -24 -21 -24 -30 1 -9 -1 -16 -5 -15 -19 2 -31 -4 -28
-14 1 -7 -4 -12 -10 -11 -7 2 -13 0 -13 -5 0 -4 -11 -20 -25 -36 -14 -16 -25
-32 -25 -36 0 -4 -11 -13 -25 -20 -14 -8 -23 -20 -21 -27 3 -8 -4 -15 -19 -19
-16 -4 -26 -15 -30 -34 -3 -15 -19 -40 -35 -55 -17 -16 -30 -34 -30 -40 0 -6
-12 -21 -26 -34 -14 -12 -23 -29 -20 -37 3 -8 1 -14 -4 -14 -17 0 -40 -32 -40
-56 0 -13 -5 -24 -11 -24 -5 0 -7 -5 -4 -10 3 -6 0 -10 -8 -10 -13 0 -42 -48
-33 -57 2 -2 -7 -16 -20 -30 -13 -14 -24 -36 -24 -49 0 -12 -6 -29 -13 -36 -8
-7 -12 -18 -10 -24 2 -6 -9 -26 -24 -45 -15 -18 -23 -30 -16 -26 6 4 14 3 17
-2 3 -5 0 -11 -8 -14 -8 -3 -17 -21 -21 -39 -4 -18 -15 -42 -24 -53 -15 -19
-15 -19 3 -5 17 14 17 11 -3 -28 -12 -23 -26 -42 -32 -42 -7 0 -6 -6 2 -17 12
-15 12 -16 -1 -8 -11 6 -12 5 -4 -4 9 -9 7 -22 -6 -49 -10 -20 -15 -39 -12
-42 9 -7 10 -50 1 -45 -4 3 -9 -2 -13 -10 -3 -8 -1 -17 4 -20 14 -8 12 -42 -2
-51 -7 -5 -8 -2 -3 7 5 8 4 10 0 6 -12 -11 -15 -38 -4 -31 6 3 8 -4 5 -18 -15
-66 -16 -99 -4 -92 7 4 4 -3 -7 -16 -11 -13 -14 -20 -7 -16 6 4 12 2 12 -3 0
-6 -6 -11 -12 -11 -9 0 -8 -4 2 -10 13 -8 13 -10 1 -10 -11 0 -10 -4 4 -13 11
-9 14 -16 8 -20 -7 -4 -8 -20 -4 -40 5 -18 6 -43 4 -56 -2 -13 1 -29 7 -36 5
-6 9 -27 9 -46 0 -49 5 -65 26 -89 10 -11 15 -20 10 -20 -4 0 -2 -7 5 -15 6
-8 9 -23 5 -34 -3 -11 0 -23 7 -28 7 -4 31 -37 52 -73 37 -61 146 -180 165
-180 5 0 14 -7 21 -15 7 -9 15 -13 17 -11 3 3 14 -4 25 -14 11 -10 26 -16 32
-14 7 3 18 -2 25 -10 7 -8 19 -12 27 -9 8 3 14 0 14 -7 0 -6 4 -8 10 -5 5 3
19 1 30 -5 12 -6 31 -14 43 -17 87 -20 115 -25 139 -27 14 0 25 -3 23 -6 -4
-6 99 -4 168 3 22 2 37 -1 37 -7 0 -8 3 -8 8 0 4 6 14 12 22 12 8 1 40 4 71 6
31 3 69 8 85 11 16 4 36 7 44 8 8 1 18 7 22 12 5 7 14 6 27 -2 13 -8 22 -9 26
-3 3 6 15 10 26 10 10 0 27 4 37 9 40 20 109 37 144 35 22 -1 36 3 35 9 -1 6
7 12 18 12 11 1 27 4 35 8 8 3 22 5 30 5 29 -1 72 11 87 24 9 7 36 14 62 15
29 2 50 9 58 19 7 9 18 14 26 11 8 -3 27 1 42 9 15 8 38 14 51 14 13 0 24 4
24 9 0 5 19 12 43 16 23 4 50 9 59 10 9 2 37 -12 62 -31 25 -19 48 -34 51 -34
21 1 25 -1 20 -9 -3 -5 3 -12 14 -16 11 -3 35 -17 54 -30 20 -13 48 -25 64
-27 15 -1 31 -7 35 -12 4 -6 26 -11 50 -12 24 -1 43 -3 43 -4 0 -8 43 -6 54 3
12 10 14 9 8 -5 -5 -15 -2 -16 19 -8 17 7 31 6 44 -2 14 -9 24 -9 42 0 13 6
32 10 43 8 11 -2 26 2 34 8 12 9 13 8 6 -3 -6 -10 -4 -12 5 -6 7 5 31 9 53 10
25 1 43 8 49 19 5 9 13 14 18 11 5 -3 20 0 32 7 13 6 29 13 36 14 8 1 23 11
34 21 11 10 23 17 27 16 3 -2 6 3 6 9 0 7 12 19 28 26 15 7 27 18 27 24 0 6
10 21 23 33 41 42 94 129 89 148 -1 4 3 7 9 7 5 0 8 4 4 10 -3 5 1 24 8 42 8
18 13 41 11 50 -1 10 2 20 7 24 5 3 9 10 9 15 0 6 -5 7 -11 3 -8 -4 -8 -1 -1
12 14 29 25 93 12 74 -9 -12 -10 -10 -8 10 2 14 8 28 13 32 6 5 5 8 -2 8 -9 0
-10 7 -4 22 4 13 6 37 4 53 -2 17 -5 57 -7 90 -7 90 -16 144 -27 150 -5 4 -9
24 -9 45 0 21 -4 42 -10 45 -5 3 -10 15 -10 26 0 14 4 18 13 13 7 -5 6 0 -3
11 -8 10 -14 26 -12 36 2 9 -2 20 -8 24 -5 3 -10 15 -10 25 0 10 -4 20 -9 22
-5 2 -10 17 -12 33 -2 17 -8 37 -14 45 -6 8 -12 29 -14 45 -2 17 -7 35 -12 41
-6 7 -12 22 -14 34 -2 12 -12 29 -22 37 -10 8 -11 11 -3 7 12 -7 13 -5 3 8 -7
8 -10 18 -6 21 3 4 2 7 -4 7 -10 0 -38 49 -35 63 1 4 -5 21 -13 38 -9 16 -13
34 -10 39 3 6 1 10 -4 10 -6 0 -11 7 -11 15 0 8 -4 15 -8 15 -4 0 -16 14 -25
30 -10 17 -15 30 -11 30 4 0 -3 9 -16 20 -13 11 -20 20 -15 20 4 0 2 6 -4 13
-6 8 -8 17 -4 20 3 4 2 7 -3 7 -5 0 -20 20 -34 45 -14 25 -28 45 -32 45 -5 0
-8 6 -8 14 0 12 -41 71 -74 106 -7 8 -31 38 -51 65 -21 28 -42 52 -47 53 -4 2
-6 8 -2 13 3 5 -2 9 -10 9 -9 0 -19 1 -23 2 -13 4 -53 55 -53 68 0 6 -4 9 -9
6 -10 -7 -51 27 -51 43 0 6 -9 11 -20 11 -11 0 -25 9 -32 20 -7 11 -18 20 -25
20 -7 0 -13 4 -13 10 0 12 -75 51 -83 43 -8 -7 -57 38 -57 52 0 6 5 3 10 -5 6
-10 10 -11 10 -2 0 6 7 12 17 12 9 0 14 3 10 6 -10 11 22 36 38 30 9 -3 15 1
15 10 0 8 5 12 11 9 5 -4 19 3 30 16 10 12 19 19 19 15 0 -4 16 9 36 29 19 19
39 33 43 30 12 -7 33 20 23 29 -4 4 -2 7 3 6 18 -4 39 0 33 5 -3 3 16 29 43
57 27 28 51 60 55 70 3 10 10 18 15 18 17 0 36 24 31 39 -3 8 0 11 6 7 5 -3
13 5 16 19 4 14 11 25 16 25 6 0 10 7 10 16 0 8 18 51 40 95 22 45 38 85 34
90 -3 5 0 9 5 9 6 0 11 7 11 15 0 9 7 30 16 46 11 22 20 29 32 24 26 -11 132
-22 132 -15 0 4 11 5 25 2 16 -3 25 0 25 8 0 7 7 10 16 6 8 -3 13 -2 10 3 -3
4 4 17 16 27 14 12 19 14 13 4 -7 -12 -6 -13 6 -2 8 7 14 16 14 20 1 18 27 52
36 47 5 -4 9 5 9 19 0 14 4 27 8 30 4 3 14 27 22 55 7 28 17 48 22 45 5 -4 4
4 -4 15 -11 18 -11 23 2 31 13 8 13 10 -1 10 -14 0 -16 6 -10 33 9 41 2 109
-12 123 -4 4 -1 14 6 22 10 13 9 15 -5 9 -13 -5 -16 -1 -12 19 2 13 0 24 -6
24 -5 0 -10 5 -10 11 0 6 -6 17 -12 24 -31 34 -43 50 -40 52 6 7 1 24 -6 19
-5 -3 -21 3 -36 13 -22 15 -25 21 -15 27 8 5 15 27 17 49 4 67 4 69 16 84 8
11 8 13 -1 7 -8 -4 -13 -1 -13 9 0 10 5 13 13 9 8 -6 8 -3 -2 9 -8 10 -10 24
-6 34 5 10 7 22 6 27 -1 4 4 15 11 24 11 13 11 14 0 8 -10 -6 -12 4 -10 48 2
33 0 58 -7 60 -6 3 -5 8 4 14 7 5 9 12 4 15 -5 3 -7 28 -3 56 3 28 4 58 2 68
-3 10 -5 36 -6 58 -1 22 -5 45 -9 52 -4 6 -2 13 5 15 7 3 8 9 2 19 -5 8 -9 31
-10 52 0 22 -7 43 -15 48 -11 6 -11 12 -3 27 9 14 8 22 -2 36 -7 11 -11 23 -8
27 3 5 -2 19 -11 32 -8 13 -12 27 -8 30 9 9 10 57 1 51 -3 -2 -9 0 -13 6 -3 5
-1 10 6 10 8 0 8 4 2 13 -6 6 -9 20 -8 30 2 9 0 15 -5 12 -9 -6 -31 75 -24 87
3 4 0 8 -5 8 -6 0 -11 10 -11 23 0 13 -9 33 -20 45 -13 14 -16 22 -8 22 10 0
10 2 1 8 -6 4 -14 19 -18 34 -4 15 -15 34 -26 44 -10 9 -19 22 -19 28 0 7 -9
19 -20 29 -11 9 -20 23 -20 31 0 7 -11 21 -25 30 -14 9 -24 20 -22 25 1 4 -17
24 -40 43 -23 20 -39 38 -36 42 4 3 0 6 -9 6 -8 0 -23 9 -33 20 -10 11 -24 20
-32 20 -7 0 -13 6 -13 13 -1 16 -23 45 -39 49 -7 2 -25 14 -40 28 -15 14 -45
31 -67 39 -21 8 -42 18 -46 24 -3 6 -13 12 -21 13 -8 1 -30 9 -49 18 -19 9
-39 16 -44 15 -21 -4 -35 2 -29 11 3 6 -1 11 -9 11 -9 1 -20 3 -26 4 -5 1 -15
3 -21 4 -5 0 -7 6 -3 12 4 7 0 9 -14 5 -12 -4 -37 1 -59 10 -21 10 -45 19 -53
21 -33 6 -71 13 -93 16 -13 2 -29 7 -36 11 -7 4 -31 10 -54 13 -23 2 -44 9
-45 14 -3 6 -10 5 -18 -2 -10 -8 -14 -8 -14 -1 0 7 -7 9 -17 5 -9 -4 -14 -2
-11 3 6 8 -13 12 -69 15 -13 1 -23 5 -23 10 0 5 -10 5 -23 0 -14 -6 -30 -5
-41 1 -10 5 -20 7 -23 4 -4 -3 -12 -1 -19 4 -13 12 -96 16 -112 6 -6 -3 -13
-2 -17 4 -3 5 -11 10 -16 10 -6 0 -7 -5 -3 -11 4 -7 -3 -6 -17 2 -13 7 -25 12
-26 11 -8 -5 -25 -1 -20 5 4 3 2 12 -4 20 -9 10 -8 13 2 13 9 0 10 3 4 8 -17
12 -36 79 -31 106 3 15 1 24 -4 21 -10 -6 -21 21 -14 38 2 7 -2 27 -11 43 -8
16 -15 35 -15 42 0 6 -6 12 -12 12 -9 0 -9 3 -3 8 14 10 13 22 -7 63 -9 19
-24 54 -33 79 -9 25 -21 53 -26 62 -5 10 -9 29 -9 43 0 14 -5 25 -11 25 -5 0
-8 4 -5 9 3 5 -1 11 -9 15 -8 3 -18 24 -21 46 -4 23 -13 44 -20 47 -8 3 -11 9
-8 14 3 5 0 9 -5 9 -6 0 -11 7 -11 15 0 9 -9 34 -19 56 -11 21 -14 36 -8 32 6
-3 2 6 -9 20 -10 15 -22 27 -26 27 -5 0 -8 6 -8 14 0 8 -4 16 -10 18 -5 2 -11
13 -13 24 -1 12 -9 28 -17 37 -35 38 -80 115 -61 103 6 -4 11 -2 11 3 0 6 -7
11 -15 11 -8 0 -25 21 -37 48 -12 26 -30 55 -41 64 -10 9 -18 19 -17 22 1 4
-1 12 -3 19 -4 8 -6 7 -6 -3 -1 -8 -12 5 -25 30 -14 25 -30 44 -35 42 -6 -1
-11 6 -11 16 0 10 -9 24 -19 32 -11 7 -18 17 -15 22 3 4 -2 8 -10 8 -9 0 -16
6 -16 14 0 8 -15 29 -32 48 -18 19 -49 54 -68 78 -34 43 -45 54 -85 86 -11 8
-13 12 -5 9 8 -4 -1 7 -20 24 -19 17 -51 47 -71 66 -20 19 -39 31 -43 27 -4
-3 -4 1 0 11 4 11 1 17 -9 17 -9 0 -19 9 -22 20 -3 11 -13 20 -20 20 -8 0 -37
22 -66 50 -28 27 -56 47 -62 43 -5 -3 -7 -2 -4 4 7 11 -22 38 -52 48 -12 3
-21 11 -21 16 0 5 -4 8 -8 7 -14 -4 -72 44 -72 58 0 12 -12 18 -31 16 -4 -1
-20 12 -37 28 -17 16 -39 30 -49 32 -10 2 -26 12 -36 23 -10 11 -15 14 -11 6
5 -10 3 -12 -5 -7 -7 5 -10 15 -6 25 5 13 4 14 -6 4 -7 -7 -17 -13 -23 -13 -5
0 -7 3 -3 6 7 8 -32 47 -58 59 -11 4 -28 7 -37 6 -10 -1 -18 2 -18 6 0 5 -17
17 -37 28 -21 11 -41 25 -45 31 -5 7 -17 10 -28 7 -21 -6 -54 20 -42 32 4 5 2
5 -5 1 -6 -3 -14 -2 -18 4 -4 6 -11 8 -16 5 -5 -4 -9 -1 -9 6 0 7 -3 10 -6 6
-3 -3 -16 3 -27 14 -15 14 -23 16 -28 7 -6 -9 -10 -8 -15 5 -3 9 -10 14 -15
11 -6 -3 -21 2 -35 11 -14 9 -31 14 -37 12 -7 -2 -25 5 -42 17 -16 11 -36 19
-43 18 -8 -2 -11 1 -8 7 7 10 -30 25 -50 20 -5 -1 -22 3 -37 9 -16 7 -37 12
-48 12 -10 0 -19 4 -19 8 0 5 -6 9 -12 10 -24 1 -69 13 -116 29 -26 9 -54 17
-62 17 -57 7 -117 20 -127 28 -6 5 -17 8 -25 7 -7 -1 -25 3 -40 9 -14 6 -39 9
-53 6 -15 -3 -33 0 -39 5 -7 6 -29 9 -49 8 -20 -2 -34 0 -31 4 2 4 -3 9 -11
13 -8 3 -15 0 -15 -6 0 -7 -7 -5 -17 4 -19 16 -47 13 -37 -4 4 -6 -1 -6 -13 1
-11 5 -33 9 -49 7 -16 -1 -36 1 -45 5 -9 5 -65 10 -125 13 -60 2 -109 5 -109
6 0 1 -12 3 -27 4 -16 1 -28 -1 -28 -4z m-1340 -6380 c0 -5 -2 -10 -4 -10 -3
0 -8 5 -11 10 -3 6 -1 10 4 10 6 0 11 -4 11 -10z"/>
</g>
</svg>
